<?xml version="1.0"?>
<svg xmlns="http://www.w3.org/2000/svg" xmlns:xlink="http://www.w3.org/1999/xlink" xmlns:svgjs="http://svgjs.com/svgjs" version="1.1" width="100" height="100" x="0" y="0" viewBox="0 0 512 512.00007" style="enable-background:new 0 0 512 512" xml:space="preserve" class=""><g><path xmlns="http://www.w3.org/2000/svg" d="m236.640625 274.90625-74.890625 21.1875v-15.667969c0-32.667969 39.722656-50.492187 63.722656-26.957031 5.988282 5.867188 9.847656 13.316406 11.167969 21.4375zm0 0" fill="#193d66" data-original="#000000" style="" class=""/><path xmlns="http://www.w3.org/2000/svg" d="m237.160156 305.929688v29.816406l-75.410156 21.335937v-29.816406zm0 0" fill="#193d66" data-original="#000000" style="" class=""/><path xmlns="http://www.w3.org/2000/svg" d="m161.75 388.257812 75.410156-21.335937v145.078125h-75.410156zm0 0" fill="#193d66" data-original="#000000" style="" class=""/><path xmlns="http://www.w3.org/2000/svg" d="m387.472656 171.617188c-13.640625 32.515624-19.722656 67.332031-17.570312 100.6875 5.128906 79.726562-26.363282 155.40625-102.742188 178.035156v-91.910156l11.449219-3.238282c7.972656-2.261718 12.613281-10.546875 10.351563-18.515625-2.261719-7.972656-10.539063-12.601562-18.519532-10.351562l-3.28125.933593v-29.816406l11.449219-3.242187c7.972656-2.257813 12.613281-10.546875 10.351563-18.515625-2.261719-7.96875-10.539063-12.597656-18.519532-10.347656l-4.871094 1.378906c-6.839843-31.472656-34.609374-54.625-67.5-53.972656-36.832031.746093-66.320312 30.769531-66.320312 67.679687v24.15625l-9.527344 2.699219c-18.550781 5.261718-12.117187 34.535156 9.527344 28.488281v29.804687l-9.527344 2.699219c-18.59375 5.273438-12.058594 34.519531 9.527344 28.488281v53.910157c-77.6875-22.355469-108.980469-98.945313-103.871094-178.363281 2.152344-33.355469-3.929687-68.167969-17.566406-100.695313-44.578125-106.105469 64.046875-212.542969 159.847656-155.828125 17.613282 10.4375 39.394532 10.707031 57.460938 0 95.933594-56.753906 204.339844 49.890625 159.851562 155.835938zm0 0" fill="#193d66" data-original="#000000" style="" class=""/></g></svg>
