<?xml version="1.0" encoding="UTF-8" standalone="no"?>
<!DOCTYPE svg PUBLIC "-//W3C//DTD SVG 1.1//EN" "http://www.w3.org/Graphics/SVG/1.1/DTD/svg11.dtd">
<svg version="1.1" xmlns="http://www.w3.org/2000/svg" xmlns:xlink="http://www.w3.org/1999/xlink" preserveAspectRatio="xMidYMid meet" viewBox="0 0 640 640" width="640" height="640"><defs><path d="M111.56 0L528.44 0L528.44 527.87L111.56 527.87L111.56 0Z" id="bZ2fzzLjO"></path><path d="M413.74 0C477.08 0 528.44 51.35 528.44 114.7C528.44 219.76 528.44 420.24 528.44 525.3C528.44 588.65 477.08 640 413.74 640C353.3 640 286.7 640 226.26 640C162.92 640 111.56 588.65 111.56 525.3C111.56 420.24 111.56 219.76 111.56 114.7C111.56 51.35 162.92 0 226.26 0C286.7 0 353.3 0 413.74 0Z" id="btKBh059F"></path></defs><g><g><g><use xlink:href="#bZ2fzzLjO" opacity="1" fill="#193d66" fill-opacity="1"></use></g><g><use xlink:href="#btKBh059F" opacity="1" fill="#193d66" fill-opacity="1"></use></g></g></g></svg>